<svg xmlns="http://www.w3.org/2000/svg" viewBox="0 0 64 64"><defs><style>.cls-1{fill:#005e6d;}.cls-2{fill:#fff;}</style></defs><title>Windows_vector</title><g id="_64x64" data-name="64x64"><path class="cls-1" d="M6.26,0A1.76,1.76,0,0,0,4.5,1.76V62.24A1.76,1.76,0,0,0,6.26,64H57.74a1.76,1.76,0,0,0,1.76-1.76V10.11A3,3,0,0,0,58.6,8l-7-7A3.21,3.21,0,0,0,49.31,0Z"/><path class="cls-2" d="M57,8.89,50.31,2.25a1.39,1.39,0,0,0-1-.41H8A1.63,1.63,0,0,0,6.34,3.47V60.53A1.63,1.63,0,0,0,8,62.16H56a1.63,1.63,0,0,0,1.63-1.63V10.62A2.44,2.44,0,0,0,57,8.89Zm-.59.58a1.37,1.37,0,0,1,.19.23H50.08V3.19Zm.48,51.06a.81.81,0,0,1-.81.81H8a.81.81,0,0,1-.81-.81V3.47A.81.81,0,0,1,8,2.66H49.26v7.45a.41.41,0,0,0,.41.42h7.16s0,.06,0,.09Z"/><path class="cls-2" d="M12.25,44.67c0-.42.48-.6,1-.6s1,.18,1,.6v4.09l3.24-4.41a.61.61,0,0,1,.54-.28,1.22,1.22,0,0,1,1.13,1,.62.62,0,0,1-.12.38L16.3,48.81l3.27,5a.53.53,0,0,1,.11.34,1.19,1.19,0,0,1-1.17,1,.77.77,0,0,1-.68-.38L15,50.46l-.81,1v2.94c0,.4-.49.61-1,.61s-1-.21-1-.61Z"/><path class="cls-2" d="M22.39,45.37a1.07,1.07,0,1,1-1.05-.94A1,1,0,0,1,22.39,45.37Zm-.08,3.14v5.91c0,.3-.43.61-1,.61s-1-.31-1-.61V48.51c0-.36.4-.6,1-.6S22.31,48.15,22.31,48.51Z"/><path class="cls-2" d="M30.1,44.35V54.42c0,.3-.41.61-1,.61s-.87-.31-.87-.61V54a2.38,2.38,0,0,1-2.09,1.19,3,3,0,0,1-2.62-3.08V50.86a2.89,2.89,0,0,1,2.67-3A2.2,2.2,0,0,1,28.16,49V44.35c0-.36.44-.6,1-.6S30.1,44,30.1,44.35Zm-4.61,7.74a1.4,1.4,0,0,0,1.31,1.38,1.52,1.52,0,0,0,1.36-1.11v-1.5a1.35,1.35,0,0,0-1.35-1.35,1.39,1.39,0,0,0-1.32,1.35Z"/><path class="cls-2" d="M35,53.05c0-1.32-3.56-.49-3.56-3,0-1.06.68-2.23,2.69-2.23,1.21,0,2.38.42,2.38,1,0,.27-.25.93-.7.93s-.83-.43-1.65-.43-1.05.37-1.05.67c0,1.1,3.6.35,3.6,3,0,1.33-1,2.19-2.76,2.19-1.53,0-2.72-.63-2.72-1.29,0-.32.27-.86.65-.86s.76.68,2,.68C34.76,53.7,35,53.35,35,53.05Z"/><path class="cls-2" d="M41,44.67c0-.42.48-.6,1-.6s1,.18,1,.6v9.75c0,.4-.5.61-1,.61s-1-.21-1-.61Z"/><path class="cls-2" d="M48.22,44.07c2,0,3.53.93,3.53,3.43v4.1c0,2.5-1.55,3.43-3.53,3.43H45.57c-.51,0-.86-.28-.86-.6V44.67c0-.32.35-.6.86-.6Zm-1.56,1.71v7.54h1.56c1,0,1.58-.55,1.58-1.72V47.5c0-1.17-.59-1.72-1.58-1.72Z"/><path class="cls-2" d="M30,20.45a7.54,7.54,0,0,0-4.84-4,2,2,0,0,1,1.86-.53,2.43,2.43,0,0,1,1.6,1.33c-.34-1.49-2.41-2.54-4.32-1.91a4.39,4.39,0,0,0-1,.48c1.16-2.14,4.09-1.89,4.8-1.4-3.61-3-7.63.08-8.27,1.58h0a8.64,8.64,0,0,0-5.32,2.22,9.46,9.46,0,0,0-2.81,8,1.86,1.86,0,0,0-2.34,1.45,2.68,2.68,0,0,0,1.68,3.18,2.91,2.91,0,0,0,1.35,0l0,.06c.67,2.92,3.58,5,5.06,5.57,5.43,2,10.17.57,12.63-2.52,1.41-1.76,2.86-5.62.45-7.87C30.51,26.05,31.15,22.91,30,20.45Zm-17.75,10c-.08-.26-.15-.49-.25-.88-.67-2.63-1.78-1.55-1.68-.8-.33-1.22,1.59-2.37,1.92.77A4.56,4.56,0,0,1,12.28,30.44Zm16.09-8.17a1.1,1.1,0,0,0-1.84.35C26.63,21.15,28,21.21,28.37,22.27Zm-.9.06c.58,0,1.09.78,1.13,1.81a2.76,2.76,0,0,1-.18,1.15,2.2,2.2,0,0,0,.1-.79c0-.82-.44-1.47-.9-1.45s-.81.7-.78,1.52a2.52,2.52,0,0,0,.11.64,1.1,1.1,0,0,1,0-.27,1.07,1.07,0,0,1,.06-.41.43.43,0,0,0,.12.11.27.27,0,0,0,.34-.16.23.23,0,0,0-.22-.3.34.34,0,0,1,.25-.15c.3,0,.56.19.58.79,0,.45-.24.89-.54.91A.6.6,0,0,1,27,25.3c.17.44.45.73.76.72l-.11,0c-.58,0-1.08-.78-1.13-1.81S26.89,22.36,27.47,22.33Zm-1.3,5.12a1,1,0,0,0,.6-.6c.17,1.23-1.88,1.68-2.72.66a.56.56,0,0,1-.15-.36C24.08,27.54,25.39,27.77,26.17,27.45Zm-3.11-2.86c-.12-.84-.61-1.46-1.09-1.39s-.76.81-.64,1.65.61,1.47,1.09,1.4h0l-.13.05c-.6.09-1.21-.7-1.36-1.75s.2-2,.8-2.07,1.2.7,1.36,1.75a3.19,3.19,0,0,1-.06,1.21A2.93,2.93,0,0,0,23.06,24.59Zm-1.27-.15a.32.32,0,0,1,.24-.26c.29,0,.61.2.65.76s-.23,1-.52,1-.59-.27-.65-.7a1.11,1.11,0,0,1,0-.41.18.18,0,0,0,.13.09.25.25,0,0,0,.31-.18A.26.26,0,0,0,21.79,24.44Zm-1.45-1.89a1.17,1.17,0,0,1,2.26-.37A1.68,1.68,0,0,0,20.34,22.55Zm8.86,7.54L29,30a.73.73,0,0,1-.18-.17c-1.15,2.83-5.55,6.43-9.93,0a1.61,1.61,0,0,1-1.16.26c.62-.13,1.09-.17,1.35-1.15.06-.2.29-.14.24.06a1.56,1.56,0,0,1-.3.67c4.29,2.73,8.18,1.64,9.7.08h0a1,1,0,0,1-.13-.39,1.09,1.09,0,0,1,0-.26s.06-.08.08,0a1.65,1.65,0,0,0,.67,1.05Z"/><path class="cls-2" d="M18.9,29.78h0Z"/><path class="cls-2" d="M54.6,28.66a1.66,1.66,0,0,0-.69-1,1.84,1.84,0,0,0-1.44-.32,13.56,13.56,0,0,0-.06-1.58,8.09,8.09,0,0,0-1-3.58,8.41,8.41,0,0,0-1.67-2.33,2.89,2.89,0,0,1,.4-1.65c0,.59,0,1.42.24,1.63.34-.15.83-.42.74-.51a3.42,3.42,0,0,1-.83-1.37l0,0c2.2,3.24,3,2.5,3.18,2.35a2.13,2.13,0,0,0,.66-.86h0c.1-.19.07-.33-.14-.59A5.63,5.63,0,0,0,51,17.24a2.07,2.07,0,0,1,2.14-.34,3.23,3.23,0,0,1,1.1.77.12.12,0,0,0,.19-.14,3.13,3.13,0,0,0-3.06-1.7,4.42,4.42,0,0,0-1.46.37c-.26-1.25-.61-3-1.54-3.51-.21-.13-.34,0-.54.13l0,0s-.87.64-1,.88c-.29.81.85,2,2.2,3l-.1.08c-.35-.19-.76-.42-1.07-.63A7.43,7.43,0,0,1,47,15.4c-.2.26.06.85.11,1.29a4.26,4.26,0,0,0,1.48.4,3.46,3.46,0,0,0-.94,1.39l-.11,0h0a12.17,12.17,0,0,0-6.81-.06,3.23,3.23,0,0,0-.48-1.05,4,4,0,0,0,1.27-.07c.11-.35.54-.86.31-1a5.89,5.89,0,0,1-.88.41,9.38,9.38,0,0,1-1,.33l-.07-.08c1.27-.57,2.4-1.34,2.31-2.05a3.94,3.94,0,0,0-.63-.88l0,0c-.13-.17-.22-.28-.42-.21-.84.27-1.42,1.62-1.85,2.59a3.55,3.55,0,0,0-1.12-.55,2.17,2.17,0,0,0-2.38.66.13.13,0,0,0,.18.18,2.09,2.09,0,0,1,.58-.28,1.56,1.56,0,0,1,1.66.52.64.64,0,0,1,.1.13,4.77,4.77,0,0,0-2.83.74c-.22.17-.27.27-.22.45h0a1.63,1.63,0,0,0,.39.81c.12.15.63.89,3-1.36v0a2.38,2.38,0,0,1-.85,1c-.08,0,.27.36.53.54.22-.13.25-.79.39-1.26a3.33,3.33,0,0,1,0,1.25A6,6,0,0,0,35.55,24a15,15,0,0,0,0,3.23c-2.15,2-.86,5.45.4,7,2.2,2.76,6.43,4,11.28,2.25a8.06,8.06,0,0,0,4.43-4.63l.31-.36h.12a2.11,2.11,0,0,0,1.09,0A2.4,2.4,0,0,0,54.6,28.66ZM50.68,17.48a12.06,12.06,0,0,1,2.38,1.46,3.75,3.75,0,0,1,.47.55c-1.09-.06-2.26-1.24-2.91-2Zm-14.93.94a5.19,5.19,0,0,1,.47-.37,11,11,0,0,1,2.24-.79.05.05,0,0,0,0,0A4.44,4.44,0,0,1,35.75,18.42Zm9.31,5.65a1.51,1.51,0,0,0-2-.34A1.05,1.05,0,0,1,45.06,24.07ZM42.6,25.56c.13-.94.68-1.64,1.21-1.56s.85.91.71,1.85-.68,1.64-1.21,1.56a.6.6,0,0,1-.19-.06l.09,0c.42.07.86-.49,1-1.25s-.15-1.41-.57-1.47-.86.49-1,1.25a2.28,2.28,0,0,0,0,.74A2.55,2.55,0,0,1,42.6,25.56Zm.75.22a.27.27,0,0,0,.31.18.38.38,0,0,0,.13-.09,1,1,0,0,1,0,.39c-.06.43-.34.74-.63.69s-.47-.42-.41-.84.34-.73.63-.69l.14,0A.26.26,0,0,0,43.35,25.78Zm-1.46,2.4a.55.55,0,0,1-.14.32c-.75.91-2.58.51-2.43-.59,0-.11,0,.32.54.54S41.73,28.53,41.89,28.18Zm-.84-13.41a2.74,2.74,0,0,1,.54-.26c-.13.42-.6,1.1-2.05,2.07l-.11-.09A8.29,8.29,0,0,1,41.05,14.77Zm-1.52,9a1,1,0,0,0-1.64-.31C38.26,22.52,39.45,22.47,39.53,23.78Zm-.84.09c.52,0,.91.78.87,1.7s-.49,1.64-1,1.62l-.1,0c.42,0,.78-.57.81-1.3s-.28-1.34-.7-1.36-.77.56-.8,1.3a2.27,2.27,0,0,0,.08.71,2.72,2.72,0,0,1-.16-1C37.72,24.57,38.18,23.85,38.69,23.87Zm-.23,1.68a.25.25,0,0,0,.33.15.29.29,0,0,0,.12-.1A1,1,0,0,1,39,26c0,.43-.27.77-.56.76s-.52-.37-.5-.8.27-.77.57-.76a.43.43,0,0,1,.14,0A.25.25,0,0,0,38.46,25.55Zm7.53,5c-3.07,4.59-7,3.92-7.62,1.61a3.67,3.67,0,0,1-1.26-1.43l-.17.15-.15.08-.17,0A1.45,1.45,0,0,0,37.2,30c0-.09.06-.07.07,0a.56.56,0,0,1,0,.22.69.69,0,0,1-.11.35h0c1.52,1.85,5.53,2,8.68-.21a1.4,1.4,0,0,1-.28-.59c0-.18.16-.23.21-.06.25.87.67.89,1.23,1A1.4,1.4,0,0,1,46,30.53Zm3.53-14.15c-1.47-1.51-1.86-2.43-1.9-3a4,4,0,0,1,.57.44,10.29,10.29,0,0,1,1.48,2.43Zm4.11,13.23c.1-.66-.89-1.63-1.49.72a6.77,6.77,0,0,1-.21.69,4.85,4.85,0,0,1,0-.87C52.25,27.35,53.93,28.53,53.63,29.61Z"/><path class="cls-2" d="M46,30.53h0Z"/></g></svg>