<svg id="Layer_1" data-name="Layer 1" xmlns="http://www.w3.org/2000/svg" viewBox="0 0 192 192"><defs><style>.cls-1{fill:#005e6d;}.cls-2{fill:#fff;}</style></defs><title>vector</title><rect class="cls-1" width="192" height="192" rx="8.66" ry="8.66"/><path class="cls-2" d="M176,184.31H16A8.35,8.35,0,0,1,7.69,176V16A8.35,8.35,0,0,1,16,7.69H176A8.35,8.35,0,0,1,184.31,16V176A8.35,8.35,0,0,1,176,184.31ZM16,10.25A5.8,5.8,0,0,0,10.25,16V176A5.8,5.8,0,0,0,16,181.75H176a5.8,5.8,0,0,0,5.79-5.79V16A5.8,5.8,0,0,0,176,10.25Z"/><path class="cls-2" d="M28.16,130.54c0-1.45,1.65-2.06,3.35-2.06s3.35.61,3.35,2.06V144.6L46,129.45a2.11,2.11,0,0,1,1.85-1c1.7,0,3.87,1.75,3.87,3.45a2,2,0,0,1-.42,1.28l-9.22,11.54L53.3,161.86a2,2,0,0,1,.36,1.18c0,1.65-2.06,3.35-4,3.35a2.6,2.6,0,0,1-2.32-1.29l-9.69-14.68-2.78,3.5V164c0,1.39-1.7,2.11-3.35,2.11s-3.35-.72-3.35-2.11Z"/><path class="cls-2" d="M63,133a3.65,3.65,0,1,1-3.6-3.25A3.48,3.48,0,0,1,63,133Zm-.25,10.76V164c0,1-1.5,2.11-3.35,2.11s-3.3-1.08-3.3-2.11v-20.3c0-1.23,1.39-2.06,3.3-2.06S62.73,142.49,62.73,143.72Z"/><path class="cls-2" d="M89.46,129.45V164c0,1-1.39,2.11-3.3,2.11-1.64,0-3-1.08-3-2.11v-1.49A8.19,8.19,0,0,1,76,166.6c-4.79,0-9-5-9-10.56v-4.23c0-5.72,4.12-10.46,9.17-10.46a7.62,7.62,0,0,1,6.64,3.92V129.45c0-1.23,1.5-2.06,3.35-2.06S89.46,128.22,89.46,129.45ZM73.64,156a4.83,4.83,0,0,0,4.49,4.74c2.62,0,4.68-2.73,4.68-3.82v-5.15a4.64,4.64,0,0,0-4.63-4.63,4.73,4.73,0,0,0-4.54,4.63Z"/><path class="cls-2" d="M106.2,159.33c0-4.53-12.21-1.7-12.21-10.3,0-3.66,2.32-7.68,9.22-7.68,4.17,0,8.19,1.45,8.19,3.35,0,.93-.87,3.2-2.42,3.2-1.24,0-2.83-1.5-5.67-1.5-2.57,0-3.6,1.29-3.6,2.32,0,3.76,12.36,1.19,12.36,10.36,0,4.58-3.4,7.52-9.48,7.52-5.25,0-9.32-2.17-9.32-4.43,0-1.09.92-2.94,2.21-2.94,1.5,0,2.63,2.32,7,2.32C105.48,161.55,106.2,160.36,106.2,159.33Z"/><path class="cls-2" d="M126.8,130.54c0-1.45,1.65-2.06,3.35-2.06s3.34.61,3.34,2.06V164c0,1.39-1.69,2.11-3.34,2.11s-3.35-.72-3.35-2.11Z"/><path class="cls-2" d="M151.73,128.48c6.8,0,12.11,3.19,12.11,11.79v14.07c0,8.6-5.31,11.79-12.11,11.79h-9.12c-1.75,0-2.93-1-2.93-2.06V130.54c0-1.09,1.18-2.06,2.93-2.06Zm-5.36,5.87v25.91h5.36c3.4,0,5.41-1.91,5.41-5.92V140.27c0-4-2-5.92-5.41-5.92Z"/><path class="cls-2" d="M89.09,51.92c-3.23-7.06-9.24-11.65-17-14.11A6.89,6.89,0,0,1,78.62,36a8.5,8.5,0,0,1,5.61,4.67c-1.2-5.24-8.46-8.95-15.17-6.73a14.94,14.94,0,0,0-3.5,1.7c4-7.52,14.35-6.66,16.86-4.93-12.68-10.4-26.82.3-29.07,5.56h0c-6.46.64-13.49,2.68-18.68,7.8C28,50.61,23.9,59,24.82,72.12c-4.28-.68-7.34,1.2-8.22,5.1-1,4.3,1.2,9.94,5.88,11.17a10.71,10.71,0,0,0,4.76.13c0-.07,0,0,.05.21C29.66,99,39.87,106.41,45.06,108.29c19.09,6.9,35.72,2,44.38-8.84,5-6.21,10-19.74,1.57-27.64C90.77,71.57,93,60.55,89.09,51.92ZM26.75,87c-.3-.91-.54-1.7-.89-3.07C23.5,74.68,19.6,78.48,20,81.09c-1.16-4.26,5.57-8.3,6.73,2.7A15.37,15.37,0,0,1,26.75,87Zm56.5-28.68s-4-3.69-6.45,1.23C77.13,54.38,81.79,54.57,83.25,58.31Zm-3.15.21c2-.09,3.81,2.76,4,6.36a9.79,9.79,0,0,1-.63,4,8.22,8.22,0,0,0,.34-2.79C83.66,63.24,82.24,61,80.61,61s-2.85,2.46-2.73,5.34a8.81,8.81,0,0,0,.4,2.26,4.19,4.19,0,0,1-.17-1,4.06,4.06,0,0,1,.21-1.43,1,1,0,0,0,.43.37.93.93,0,0,0,1.19-.55.79.79,0,0,0-.76-1,1.17,1.17,0,0,1,.86-.53c1.08,0,2,.67,2.07,2.77.08,1.57-.86,3.14-1.93,3.19a2,2,0,0,1-1.8-1.51c.57,1.55,1.57,2.58,2.67,2.53a1.59,1.59,0,0,1-.39.08c-2,.1-3.81-2.76-4-6.35S78.06,58.61,80.1,58.52Zm-4.56,18a3.57,3.57,0,0,0,2.1-2.13c.6,4.31-6.62,5.92-9.57,2.31a2.12,2.12,0,0,1-.53-1.26C68.17,76.83,72.79,77.62,75.54,76.52Zm-10.94-10c-.43-2.95-2.14-5.15-3.82-4.91s-2.68,2.85-2.24,5.82,2.14,5.15,3.82,4.9l.07,0a2.9,2.9,0,0,1-.47.16c-2.1.31-4.23-2.44-4.78-6.14s.71-7,2.81-7.26,4.23,2.43,4.77,6.14a10.33,10.33,0,0,1-.21,4.24A8.64,8.64,0,0,0,64.6,66.47Zm-4.46-.55A1.09,1.09,0,0,1,61,65c1-.15,2.17.69,2.28,2.65.13,2.19-.78,3.41-1.82,3.56s-2-1-2.28-2.48a3.87,3.87,0,0,1,.06-1.41.81.81,0,0,0,.46.31.9.9,0,0,0,.47-1.74Zm-5.08-6.64c0-3.88,5.41-5.58,7.94-1.3C58.39,55,55.06,59.28,55.06,59.28Zm31.11,26.5a3.69,3.69,0,0,1-.62-.33,3.61,3.61,0,0,1-.66-.58c-4,9.94-19.46,22.58-34.88-.14a5.6,5.6,0,0,1-4.07.89c2.2-.46,3.85-.6,4.77-4,.18-.69,1-.5.83.2a5.57,5.57,0,0,1-1.06,2.37c15.07,9.59,28.73,5.74,34.08.27h0a3.07,3.07,0,0,1-.44-1.37,2.77,2.77,0,0,1,.09-.91c0-.16.21-.26.28.1A5.8,5.8,0,0,0,86.84,86,5.09,5.09,0,0,1,86.17,85.78Z"/><path class="cls-2" d="M50,84.7l0,0h0S49.94,84.63,50,84.7Z"/><path class="cls-2" d="M175.36,80.74a5.88,5.88,0,0,0-2.42-3.58,6.54,6.54,0,0,0-5.06-1.1,46,46,0,0,0-.19-5.57,29.15,29.15,0,0,0-3.5-12.58,29.87,29.87,0,0,0-5.89-8.17,10.37,10.37,0,0,1,1.41-5.8c.14,2.09,0,5,.83,5.73,1.2-.54,2.93-1.49,2.63-1.78a11.82,11.82,0,0,1-2.92-4.82l.08-.1c7.76,11.38,10.52,8.76,11.17,8.24a7.25,7.25,0,0,0,2.32-3h0c.36-.67.24-1.15-.51-2.06-2.58-3.15-7.23-4.67-10.75-5.49a7.36,7.36,0,0,1,7.54-1.19,11.06,11.06,0,0,1,3.85,2.69.41.41,0,0,0,.53,0,.39.39,0,0,0,.13-.51,11,11,0,0,0-10.72-6,14.53,14.53,0,0,0-5.13,1.3c-.94-4.42-2.15-10.49-5.41-12.36-.76-.44-1.21-.08-1.9.48l.11-.1s-3.06,2.22-3.36,3.06c-1,2.85,3,7.05,7.75,10.53l-.36.27c-1.24-.66-2.66-1.49-3.76-2.23a28.05,28.05,0,0,1-3.28-2.49c-.67.94.24,3,.38,4.55.55.52,3,1,5.2,1.41A11.94,11.94,0,0,0,150.82,45l-.39-.16h0c-10-3.67-21.63-.87-23.9-.22a11.22,11.22,0,0,0-1.7-3.68c1.88.08,3.93.08,4.47-.25.38-1.23,1.91-3,1.08-3.62a23.75,23.75,0,0,1-3.09,1.46,34.48,34.48,0,0,1-3.43,1.15l-.25-.27c4.45-2,8.43-4.73,8.1-7.22-.1-.73-2.21-3.07-2.21-3.07l.08.11c-.47-.57-.78-.95-1.47-.73-3,1-5,5.68-6.51,9.11a12.29,12.29,0,0,0-3.94-1.94c-3.66-1-6.6.14-8.34,2.3a.48.48,0,0,0,0,.62.47.47,0,0,0,.61,0,6.2,6.2,0,0,1,2-1,5.56,5.56,0,0,1,5.85,1.83,4.59,4.59,0,0,1,.33.44c-3,0-7.21.42-9.93,2.6-.77.61-.94,1-.77,1.58h0A6,6,0,0,0,108.81,47c.43.53,2.24,3.14,10.51-4.79l0,.09a8.47,8.47,0,0,1-3,3.46c-.3.19,1,1.25,1.84,1.9.78-.45.9-2.76,1.37-4.41a10.76,10.76,0,0,1,0,4.36,22.09,22.09,0,0,0-9.64,10.77,21.33,21.33,0,0,0-1.45,6.09c-.82,5.88.22,11.22.06,11.37-7.55,7-3,19.14,1.4,24.69,7.73,9.68,22.6,14.06,39.64,7.89,4.43-1.6,13-7.72,15.56-16.26l1.09-1.27.42,0a7.32,7.32,0,0,0,3.81,0C174.59,89.64,176.36,84.54,175.36,80.74ZM161.6,41.47c2.9,1.5,6.94,3.68,8.38,5.15a13.58,13.58,0,0,1,1.62,1.93c-3.83-.21-7.92-4.35-10.19-6.89Zm-52.42,3.32a11.42,11.42,0,0,1,1.64-1.29c1.45-1,5.22-2.06,7.85-2.78l.09.15C116.49,42.53,112.38,45.29,109.18,44.79Zm32.7,19.83s-3-3.81-7.09-1.17C137,59.63,141.85,61.15,141.88,64.62Zm-8.67,5.25c.48-3.31,2.4-5.76,4.26-5.49s3,3.19,2.51,6.49-2.39,5.76-4.26,5.48a2,2,0,0,1-.67-.22,1.6,1.6,0,0,0,.31.1c1.49.23,3-1.74,3.41-4.38s-.51-5-2-5.19-3,1.74-3.41,4.38a7.81,7.81,0,0,0,0,2.61A9.34,9.34,0,0,1,133.21,69.87Zm2.66.75a.88.88,0,0,0,1.08.63.76.76,0,0,0,.44-.3,3.51,3.51,0,0,1,.06,1.38c-.22,1.49-1.21,2.58-2.23,2.42s-1.66-1.47-1.43-3S135,69.22,136,69.36a1.37,1.37,0,0,1,.47.19A.88.88,0,0,0,135.87,70.62Zm-5.14,8.43a1.91,1.91,0,0,1-.47,1.13c-2.64,3.22-9.08,1.79-8.55-2.07A3.15,3.15,0,0,0,123.59,80C126,81,130.17,80.29,130.73,79.05ZM127.78,32a10.76,10.76,0,0,1,1.89-.91c-.44,1.48-2.1,3.86-7.19,7.28l-.39-.33C123.86,35.73,126.33,32.79,127.78,32Zm-5.32,31.65c-2.16-4.39-5.76-1.1-5.76-1.1C118,59.17,122.16,59,122.46,63.61Zm-2.95.32c1.82.09,3.18,2.75,3,6s-1.72,5.77-3.54,5.68a2,2,0,0,1-.35-.07c1.45,0,2.72-2,2.83-4.55s-1-4.71-2.44-4.77-2.72,2-2.83,4.54a7.3,7.3,0,0,0,.31,2.5,8.85,8.85,0,0,1-.56-3.61C116.11,66.4,117.69,63.86,119.51,63.93Zm-.81,5.91a.89.89,0,0,0,1.14.53.93.93,0,0,0,.42-.36,4,4,0,0,1,.2,1.38c-.07,1.51-1,2.7-2,2.66s-1.81-1.31-1.75-2.82,1-2.7,2-2.66a1.19,1.19,0,0,1,.49.13A.9.9,0,0,0,118.7,69.84Zm26.44,17.49c-10.79,16.1-24.54,13.74-26.77,5.63a12.68,12.68,0,0,1-4.43-5,2.61,2.61,0,0,1-.58.52,2.94,2.94,0,0,1-.55.3,3.06,3.06,0,0,1-.59.17,5.16,5.16,0,0,0,2-3.33c.06-.32.2-.23.25-.09a2.41,2.41,0,0,1,.1.8,2.68,2.68,0,0,1-.38,1.23h0c5.31,6.5,19.39,7.1,30.47-.71a5.08,5.08,0,0,1-1-2.1c-.14-.61.57-.8.75-.19.87,3,2.34,3.14,4.32,3.51A5,5,0,0,1,145.14,87.33Zm12.39-49.72c-5.14-5.3-6.51-8.52-6.67-10.38a13.5,13.5,0,0,1,2,1.54c1.49,1.34,3.67,5.43,5.2,8.55ZM172,84.1c.34-2.33-3.15-5.73-5.26,2.53a22.79,22.79,0,0,1-.73,2.42,19.82,19.82,0,0,1,.1-3.06C167.12,76.16,173,80.29,172,84.1Z"/><path class="cls-2" d="M145.14,87.33l0,0c0-.06,0,0,0,0Z"/></svg>