<svg id="Layer_1" data-name="Layer 1" xmlns="http://www.w3.org/2000/svg" viewBox="0 0 180 180"><defs><style>.cls-1{fill:#005e6d;}.cls-2{fill:#fff;}</style></defs><title>iOS_svg</title><path class="cls-1" d="M35.24,0H144.76A35.24,35.24,0,0,1,180,35.24V145.88A34.12,34.12,0,0,1,145.88,180H35.24A35.24,35.24,0,0,1,0,144.76V35.24A35.24,35.24,0,0,1,35.24,0Z"/><path class="cls-2" d="M137.55,173.24H42.45A35.73,35.73,0,0,1,6.76,137.55V42.45A35.73,35.73,0,0,1,42.45,6.76h95.1a35.73,35.73,0,0,1,35.69,35.69v95.1A35.73,35.73,0,0,1,137.55,173.24ZM42.45,9.38A33.11,33.11,0,0,0,9.38,42.45v95.1a33.1,33.1,0,0,0,33.07,33.07h95.1a33.1,33.1,0,0,0,33.07-33.07V42.45A33.11,33.11,0,0,0,137.55,9.38Z"/><path class="cls-2" d="M26.4,122.38c0-1.36,1.55-1.93,3.14-1.93s3.14.57,3.14,1.93v13.18l10.43-14.2a2,2,0,0,1,1.74-.91c1.6,0,3.63,1.64,3.63,3.23a1.87,1.87,0,0,1-.39,1.21l-8.65,10.82,10.53,16a1.91,1.91,0,0,1,.34,1.11c0,1.55-1.93,3.14-3.77,3.14a2.46,2.46,0,0,1-2.17-1.2L35.29,141l-2.61,3.28v9.47c0,1.3-1.59,2-3.14,2s-3.14-.68-3.14-2Z"/><path class="cls-2" d="M59.05,124.65a3.43,3.43,0,1,1-3.38-3.05A3.28,3.28,0,0,1,59.05,124.65Zm-.25,10.09v19c0,1-1.4,2-3.13,2s-3.1-1-3.1-2v-19c0-1.16,1.31-1.93,3.1-1.93S58.8,133.58,58.8,134.74Z"/><path class="cls-2" d="M83.87,121.36v32.41c0,1-1.31,2-3.09,2-1.55,0-2.8-1-2.8-2v-1.4a7.67,7.67,0,0,1-6.72,3.82c-4.49,0-8.45-4.74-8.45-9.91v-4c0-5.36,3.87-9.8,8.6-9.8a7.16,7.16,0,0,1,6.23,3.67V121.36c0-1.16,1.4-1.93,3.14-1.93S83.87,120.2,83.87,121.36ZM69,146.28a4.52,4.52,0,0,0,4.2,4.45c2.47,0,4.4-2.56,4.4-3.58v-4.83A4.35,4.35,0,0,0,73.29,138,4.44,4.44,0,0,0,69,142.32Z"/><path class="cls-2" d="M99.56,149.38c0-4.26-11.45-1.6-11.45-9.66,0-3.43,2.18-7.2,8.65-7.2,3.91,0,7.68,1.35,7.68,3.14,0,.87-.82,3-2.27,3-1.16,0-2.66-1.4-5.31-1.4-2.42,0-3.38,1.21-3.38,2.18,0,3.52,11.59,1.11,11.59,9.7,0,4.3-3.19,7.06-8.89,7.06-4.93,0-8.74-2-8.74-4.16,0-1,.87-2.75,2.08-2.75,1.4,0,2.46,2.17,6.52,2.17C98.88,151.45,99.56,150.34,99.56,149.38Z"/><path class="cls-2" d="M118.87,122.38c0-1.36,1.55-1.93,3.14-1.93s3.14.57,3.14,1.93v31.39c0,1.3-1.59,2-3.14,2s-3.14-.68-3.14-2Z"/><path class="cls-2" d="M142.25,120.45c6.37,0,11.35,3,11.35,11.06v13.18c0,8.07-5,11.06-11.35,11.06H133.7c-1.64,0-2.75-.92-2.75-1.93V122.38c0-1,1.11-1.93,2.75-1.93Zm-5,5.5v24.29h5c3.18,0,5.07-1.78,5.07-5.55V131.51c0-3.77-1.89-5.56-5.07-5.56Z"/><path class="cls-2" d="M83.52,48.68c-3-6.62-8.66-10.92-16-13.23a6.5,6.5,0,0,1,6.15-1.75A8,8,0,0,1,79,38.08c-1.12-4.91-7.94-8.39-14.22-6.31a13.92,13.92,0,0,0-3.29,1.59c3.8-7,13.46-6.23,15.81-4.62C65.39,19,52.12,29,50,34h0c-6.05.59-12.64,2.51-17.51,7.31-6.26,6.18-10.1,14-9.24,26.34-4-.64-6.88,1.13-7.71,4.78-.92,4,1.13,9.33,5.51,10.48a10.12,10.12,0,0,0,4.46.12c0-.07,0,0,0,.2,2.23,9.62,11.8,16.57,16.66,18.33,17.9,6.47,33.5,1.87,41.61-8.29,4.64-5.81,9.4-18.5,1.48-25.91C85.09,67.1,87.21,56.77,83.52,48.68ZM25.07,81.56c-.27-.86-.5-1.6-.83-2.88C22,70,18.38,73.57,18.72,76,17.63,72,24,68.24,25,78.56A14.16,14.16,0,0,1,25.07,81.56Zm53-26.9s-3.78-3.46-6,1.16C72.31,51,76.68,51.16,78.05,54.66Zm-3,.2c1.9-.08,3.57,2.59,3.71,6a9.22,9.22,0,0,1-.58,3.8A8.08,8.08,0,0,0,78.55,62c-.12-2.7-1.45-4.83-3-4.77s-2.67,2.31-2.56,5a8.69,8.69,0,0,0,.37,2.12,4.23,4.23,0,0,1-.15-.9,3.81,3.81,0,0,1,.19-1.34.92.92,0,0,0,.41.34A.87.87,0,0,0,75,61.94a.75.75,0,0,0-.72-1,1.13,1.13,0,0,1,.81-.49c1,0,1.84.63,1.94,2.59.07,1.48-.81,3-1.81,3a1.93,1.93,0,0,1-1.69-1.42C74,66.09,75,67.05,76,67a2.2,2.2,0,0,1-.37.07c-1.91.09-3.58-2.59-3.72-6S73.19,55,75.1,54.86ZM70.82,71.74c2-.8,1.91-2.39,2-2,.56,4.05-6.21,5.55-9,2.17a2,2,0,0,1-.5-1.18C63.91,72,68.24,72.77,70.82,71.74ZM60.56,62.32c-.4-2.77-2-4.84-3.57-4.6s-2.52,2.67-2.11,5.44,2,4.84,3.58,4.6h.07a2.35,2.35,0,0,1-.45.14c-2,.29-4-2.28-4.47-5.75s.66-6.52,2.63-6.81,4,2.28,4.47,5.75a9.78,9.78,0,0,1-.19,4A8.05,8.05,0,0,0,60.56,62.32Zm-4.18-.52a1,1,0,0,1,.78-.83c1-.15,2,.64,2.14,2.48.12,2.06-.73,3.19-1.71,3.34s-1.92-.9-2.13-2.32a3.45,3.45,0,0,1,0-1.33.76.76,0,0,0,.43.29.84.84,0,0,0,1-.6A.83.83,0,0,0,56.38,61.8Zm-4.77-6.22c0-3.65,5.08-5.24,7.45-1.23C54.74,51.58,51.61,55.58,51.61,55.58ZM80.78,80.42a4.63,4.63,0,0,1-.58-.31,2.85,2.85,0,0,1-.61-.54c-3.79,9.31-18.25,21.16-32.71-.13a5.26,5.26,0,0,1-3.81.83c2.06-.43,3.61-.56,4.47-3.77.17-.65.93-.47.78.19a5.24,5.24,0,0,1-1,2.22c14.13,9,26.94,5.38,31.95.26v0a2.92,2.92,0,0,1-.41-1.28,2.42,2.42,0,0,1,.09-.85c0-.15.19-.25.26.09a5.53,5.53,0,0,0,2.21,3.48A4.91,4.91,0,0,1,80.78,80.42Z"/><path class="cls-2" d="M46.86,79.4l0,0h0S46.82,79.34,46.86,79.4Z"/><path class="cls-2" d="M164.4,75.69a5.53,5.53,0,0,0-2.27-3.35,6.17,6.17,0,0,0-4.75-1,42.56,42.56,0,0,0-.17-5.22,27.32,27.32,0,0,0-3.29-11.79,28.08,28.08,0,0,0-5.51-7.66,9.57,9.57,0,0,1,1.32-5.43c.13,2,0,4.66.77,5.37,1.13-.51,2.75-1.4,2.47-1.67a11,11,0,0,1-2.73-4.52l.07-.09C157.58,51,160.17,48.5,160.78,48A6.79,6.79,0,0,0,163,45.17h0c.34-.63.23-1.08-.47-1.93-2.42-3-6.78-4.38-10.08-5.15A6.89,6.89,0,0,1,159.45,37a10.51,10.51,0,0,1,3.61,2.51.38.38,0,0,0,.62-.43,10.28,10.28,0,0,0-10.06-5.59,13.63,13.63,0,0,0-4.8,1.21c-.89-4.14-2-9.82-5.07-11.58-.71-.42-1.14-.07-1.78.45l.1-.1s-2.87,2.09-3.15,2.88c-.95,2.66,2.82,6.6,7.26,9.87l-.33.25c-1.17-.62-2.49-1.39-3.53-2.09A24.7,24.7,0,0,1,139.25,32c-.64.88.22,2.81.35,4.27.52.49,2.78,1,4.88,1.32a11,11,0,0,0-3.08,4.58l-.37-.14h0c-9.38-3.45-20.27-.82-22.4-.21A10.33,10.33,0,0,0,117,38.4c1.76.08,3.68.08,4.18-.23.36-1.16,1.8-2.84,1-3.4a20.44,20.44,0,0,1-2.9,1.37,32.64,32.64,0,0,1-3.21,1.08l-.24-.25c4.17-1.89,7.91-4.44,7.59-6.77-.09-.69-2.06-2.88-2.06-2.88a.51.51,0,0,1,.07.1c-.44-.54-.73-.89-1.38-.68-2.78.9-4.67,5.33-6.1,8.54a11.37,11.37,0,0,0-3.69-1.82c-3.44-1-6.19.13-7.82,2.16a.43.43,0,0,0,0,.57.44.44,0,0,0,.58.05,5.7,5.7,0,0,1,1.88-.93A5.21,5.21,0,0,1,110.46,37c.11.13.21.27.31.41-2.83,0-6.77.4-9.32,2.44-.71.58-.88.92-.71,1.49h0A5.59,5.59,0,0,0,102,44c.4.5,2.1,2.95,9.85-4.49l0,.09a8,8,0,0,1-2.78,3.24c-.28.18.88,1.18,1.72,1.79.73-.43.85-2.59,1.29-4.14a10,10,0,0,1,0,4.09,20.71,20.71,0,0,0-9,10.09,20.18,20.18,0,0,0-1.36,5.71c-.77,5.51.2,10.52,0,10.66-7.08,6.62-2.82,18,1.32,23.14,7.25,9.08,21.18,13.19,37.17,7.41,4.15-1.51,12.14-7.24,14.58-15.25.34-.38.68-.78,1-1.19a2.58,2.58,0,0,0,.4,0,6.74,6.74,0,0,0,3.57,0C163.68,84,165.34,79.26,164.4,75.69ZM151.5,38.88c2.72,1.4,6.51,3.45,7.86,4.82a13.38,13.38,0,0,1,1.52,1.82c-3.59-.2-7.43-4.08-9.56-6.46ZM102.35,42a10.64,10.64,0,0,1,1.55-1.21c1.36-.9,4.89-1.93,7.35-2.6l.08.13C109.21,39.87,105.35,42.46,102.35,42ZM133,60.58s-2.79-3.57-6.64-1.09C128.48,55.91,133,57.33,133,60.58Zm-8.12,4.92c.45-3.1,2.24-5.4,4-5.14s2.81,3,2.35,6.08-2.24,5.4-4,5.14a1.94,1.94,0,0,1-.63-.2c.1,0,.19.08.29.09,1.4.21,2.84-1.63,3.2-4.11s-.48-4.66-1.88-4.87-2.83,1.64-3.2,4.11a7.38,7.38,0,0,0,0,2.45A8.6,8.6,0,0,1,124.89,65.5Zm2.49.71a.83.83,0,0,0,1,.59.77.77,0,0,0,.42-.29,3.51,3.51,0,0,1,.05,1.3c-.21,1.39-1.14,2.41-2.09,2.27s-1.55-1.38-1.35-2.78,1.14-2.41,2.1-2.27a1.26,1.26,0,0,1,.44.17A.84.84,0,0,0,127.38,66.21Zm-4.82,7.9a1.78,1.78,0,0,1-.45,1.06c-2.47,3-8.51,1.68-8-1.94A3,3,0,0,0,115.86,75C118.16,75.94,122,75.27,122.56,74.11ZM119.79,30a10.12,10.12,0,0,1,1.78-.85c-.42,1.39-2,3.62-6.74,6.83l-.37-.31C116.12,33.5,118.44,30.74,119.79,30Zm-5,29.68c-2-4.12-5.4-1-5.4-1C110.63,55.48,114.53,55.32,114.81,59.64Zm-2.77.3c1.71.08,3,2.58,2.85,5.59s-1.61,5.41-3.32,5.33c-.11,0-.22,0-.33-.07,1.37,0,2.55-1.85,2.66-4.27s-.92-4.41-2.29-4.47-2.55,1.85-2.65,4.26a6.9,6.9,0,0,0,.28,2.34,8.27,8.27,0,0,1-.52-3.38C108.85,62.25,110.34,59.87,112,59.94Zm-.76,5.54a.83.83,0,0,0,1.07.49.85.85,0,0,0,.39-.33,3.53,3.53,0,0,1,.19,1.29c-.06,1.41-.9,2.53-1.87,2.49s-1.69-1.23-1.63-2.65.9-2.53,1.86-2.49a1.22,1.22,0,0,1,.46.13A.84.84,0,0,0,111.28,65.48Zm24.79,16.39C126,97,113.06,94.76,111,87.15a11.77,11.77,0,0,1-4.16-4.71,2.5,2.5,0,0,1-.54.49,2.92,2.92,0,0,1-.52.28,3.62,3.62,0,0,1-.56.17,4.91,4.91,0,0,0,1.93-3.13c.06-.3.19-.22.23-.08a1.91,1.91,0,0,1,.09.75,2.49,2.49,0,0,1-.35,1.15h0c5,6.09,18.18,6.65,28.57-.67a4.61,4.61,0,0,1-.93-2c-.14-.58.54-.75.7-.18.82,2.84,2.2,2.94,4.05,3.29A4.69,4.69,0,0,1,136.07,81.87Zm11.62-46.61c-4.83-5-6.11-8-6.25-9.73A12.33,12.33,0,0,1,143.31,27c1.4,1.25,3.45,5.08,4.88,8Zm13.54,43.58c.32-2.19-2.95-5.37-4.93,2.37a20.22,20.22,0,0,1-.69,2.28,18.78,18.78,0,0,1,.1-2.88C156.68,71.4,162.21,75.28,161.23,78.84Z"/><path class="cls-2" d="M136.07,81.87l0,0s0,0,0,0Z"/></svg>